PathFileType	4	(X/Y/Z)	/Users/niels/Desktop/University/Third Semester/Perception and Action/Exam/Gymnastics Motion Tracking/Code for Gym Tracking/Scripts/Analyzed Data/Start Salto/st_salto_bad_id10_2_Sports2D/st_salto_bad_id10_2_Sports2D_px_person00.trc
DataRate	CameraRate	NumFrames	NumMarkers	Units	OrigDataRate	OrigDataStartFrame	OrigNumFrames
29.80392156862745	29.80392156862745	12	22	m	29.80392156862745	38	153
Frame#	Time	Hip			RHip			RKnee			RAnkle			RBigToe			RSmallToe			RHeel			LHip			LKnee			LAnkle			LBigToe			LSmallToe			LHeel			Neck			Head			Nose			RShoulder			RElbow			RWrist			LShoulder			LElbow			LWrist		
		X1	Y1	Z1	X2	Y2	Z2	X3	Y3	Z3	X4	Y4	Z4	X5	Y5	Z5	X6	Y6	Z6	X7	Y7	Z7	X8	Y8	Z8	X9	Y9	Z9	X10	Y10	Z10	X11	Y11	Z11	X12	Y12	Z12	X13	Y13	Z13	X14	Y14	Z14	X15	Y15	Z15	X16	Y16	Z16	X17	Y17	Z17	X18	Y18	Z18	X19	Y19	Z19	X20	Y20	Z20	X21	Y21	Z21	X22	Y22	Z22
38	1.275	1.1273697710334474	-0.2657675928533019	0.0	1.1306532855484985	-0.25642583522845597	0.0	0.9876715096988082	-0.282275441170973	0.0	1.0295613081770227	-0.16337389934840374	0.0	0.9847076261823193	-0.12654069001209461	0.0	0.9928789034075947	-0.1275702765195659	0.0	1.0373425870464792	-0.15611558247908752	0.0	1.1245146784764202	-0.27089289190406945	0.0	0.9896210642514578	-0.28562558246576014	0.0	1.026199083545242	-0.17420619076879626	0.0	0.9981137934566117	-0.12692502603903533	0.0	1.0015028598185975	-0.14335348096768438	0.0	1.0400603992291642	-0.15493501532439416	0.0	1.0891677015611783	-0.4351046877865737	0.0	1.055812817434728	-0.5017451795191566	0.0	1.0533720850240078	-0.4540802927356242	0.0	1.108121432432982	-0.4109958408492317	0.0	1.0922740128391268	-0.32878281380915353	0.0	1.0204370701107173	-0.3009377123881276	0.0	1.0767856620679586	-0.42307235555785094	0.0	1.0529747577469242	-0.3665040146038408	0.0	1.0210324450846207	-0.31613236551769053	0.0
39	1.3085526315789473	1.1392028874456337	-0.27015147931308403	0.0	1.1439777032300447	-0.2609463630813536	0.0	0.9980316125206373	-0.2744318573815338	0.0	1.0514585022372982	-0.15913346802088632	0.0	1.0077480065285471	-0.11965927854952843	0.0	1.0167806733955793	-0.12034032541722672	0.0	1.0604766903016176	-0.15208692591529008	0.0	1.1347672060816907	-0.2752135882964818	0.0	0.998480467115363	-0.2753122410001821	0.0	1.047076048696095	-0.16799513651722045	0.0	1.0210117160543044	-0.12079849288447989	0.0	1.0246624565647113	-0.13619870631061862	0.0	1.0615045840161996	-0.14999913826188724	0.0	1.0872640941761598	-0.43334797581762946	0.0	1.0486311303955245	-0.4992466772771563	0.0	1.0512049304708062	-0.4500397301830906	0.0	1.1103523367337744	-0.41165189558630366	0.0	1.1004541422400136	-0.3291858762475418	0.0	1.0310644936281104	-0.2971998080195152	0.0	1.074102497796829	-0.42088372505666766	0.0	1.054573549565714	-0.36169536517088197	0.0	1.0261365926398003	-0.30617695791586874	0.0
40	1.3421052631578947	1.1507968567023006	-0.27404872591139773	0.0	1.156758309913592	-0.26602198559268325	0.0	1.0093394247096092	-0.2666866870520078	0.0	1.0741170359704542	-0.15563185385105646	0.0	1.031701016939633	-0.11424266575784363	0.0	1.041861088131703	-0.11453188173003696	0.0	1.0841142917149298	-0.14855939742095794	0.0	1.1450600849400567	-0.27865838468499543	0.0	1.0086834818490598	-0.2653904852257869	0.0	1.0692811862253526	-0.16227291515593478	0.0	1.0430163869328402	-0.1159361057192148	0.0	1.0483601590753013	-0.12983038718358786	0.0	1.0836878927928497	-0.14534272433829992	0.0	1.08541040677406	-0.4305318211703605	0.0	1.0417454207113446	-0.495366974191115	0.0	1.0499343091441673	-0.4453217662817871	0.0	1.1125974592415158	-0.41227902992463833	0.0	1.1088058879147045	-0.3299842649813883	0.0	1.0422795760196906	-0.2941391933648791	0.0	1.0726854149970249	-0.4173130962345349	0.0	1.0573773948020024	-0.3567492953905476	0.0	1.0305722912707143	-0.2981024482305649	0.0
41	1.375657894736842	1.162294731748499	-0.27758161057491465	0.0	1.1688530561166246	-0.2715072583194548	0.0	1.0218022798575306	-0.2591838069867077	0.0	1.0971541547882142	-0.15303814903171384	0.0	1.0566313681368205	-0.11016223905520557	0.0	1.0682428820662262	-0.11039887303593585	0.0	1.1079154794216466	-0.14605966564312656	0.0	1.155551170262949	-0.2814997025202703	0.0	1.0203644028489667	-0.2562240344073194	0.0	1.0921648838904043	-0.1577302642588227	0.0	1.0649731753791734	-0.11181953727649786	0.0	1.0723692989585787	-0.1244947787769866	0.0	1.1062948844309024	-0.14145775190511337	0.0	1.0838547621867833	-0.42705325102345754	0.0	1.035351387111423	-0.4901965591624268	0.0	1.0495194276544548	-0.44030370872142843	0.0	1.1145434167390669	-0.41295199528586274	0.0	1.117255734834976	-0.3310801680323389	0.0	1.0538266356259531	-0.29172818581418625	0.0	1.0725112755631856	-0.4128911508180867	0.0	1.061115948717892	-0.351626365300435	0.0	1.0348616480197157	-0.291092485429772	0.0
42	1.4092105263157895	1.173869684404997	-0.2812151882247514	0.0	1.1803502244370545	-0.2773438020672427	0.0	1.0357458434804452	-0.25204348334564747	0.0	1.1202777444037133	-0.1516436453020973	0.0	1.0828458730664299	-0.10744429391653049	0.0	1.0960100959710308	-0.10828949614261867	0.0	1.1317325338425095	-0.1451371612275106	0.0	1.1662568854608149	-0.28435851071731233	0.0	1.0337407396433325	-0.2479391046233034	0.0	1.1152291169785917	-0.15477153293442952	0.0	1.0882153103914234	-0.10826039742649393	0.0	1.0967642365737282	-0.11996533049392172	0.0	1.129170784840018	-0.13904632778275258	0.0	1.0827314248231035	-0.42341636041766484	0.0	1.0296425737364283	-0.4840674369996637	0.0	1.0495525107331485	-0.4350438635761988	0.0	1.1159472439969416	-0.41351582157326383	0.0	1.125759706198904	-0.3323593086039222	0.0	1.0654446112072817	-0.2898375996867515	0.0	1.0733692291389982	-0.40843908024955305	0.0	1.0653641685092787	-0.3464030052323712	0.0	1.0393237278722554	-0.2846485463031288	0.0
43	1.4427631578947369	1.1857333014145988	-0.28546412714342734	0.0	1.19156349236928	-0.28352635699601153	0.0	1.0513914441131944	-0.2453321434579918	0.0	1.1436281639791928	-0.15167888391997758	0.0	1.1108005812219264	-0.1062232293677537	0.0	1.1252868278087325	-0.10843185219579672	0.0	1.1557665407608488	-0.14612073891741872	0.0	1.1772399234803097	-0.2878048527362774	0.0	1.0489852920528473	-0.24050641995539251	0.0	1.1384610113730187	-0.15351145776912845	0.0	1.1139555476152083	-0.10543213647736158	0.0	1.1220175667215617	-0.11598681243400022	0.0	1.1525291105849227	-0.13865289652767168	0.0	1.0821171003095371	-0.4199287130209865	0.0	1.0247049106967996	-0.4772287997402953	0.0	1.0496043185591333	-0.4293454418878053	0.0	1.1167343451573961	-0.4138086045385878	0.0	1.1343998566401772	-0.3338063073862896	0.0	1.0770696505670618	-0.28828156777399006	0.0	1.0749703279681322	-0.40456964102474946	0.0	1.0698627765330964	-0.341170902499406	0.0	1.0443426000925229	-0.2785668492349352	0.0
44	1.4763157894736842	1.1978543825712429	-0.2905990744088862	0.0	1.2027141411441664	-0.2900261544349423	0.0	1.0684464896053365	-0.23916911055380213	0.0	1.1673989468185861	-0.15322825029803355	0.0	1.1403741734661081	-0.10665861425289586	0.0	1.1558110363221477	-0.11076145687724784	0.0	1.1801135570440144	-0.14898318876886044	0.0	1.1885102704873574	-0.29209090644280883	0.0	1.0657660382249143	-0.23398618967556273	0.0	1.1619764956966057	-0.15393541599924948	0.0	1.142260203018682	-0.10390883386074776	0.0	1.148386637411062	-0.11297639052697733	0.0	1.1765507878326686	-0.1404555257485927	0.0	1.0820542822920065	-0.41659919897035014	0.0	1.0205777268809841	-0.46974467218820676	0.0	1.0495133689975427	-0.4229934995214463	0.0	1.1170088090968684	-0.4137621594242246	0.0	1.1432209221173821	-0.3354953637812725	0.0	1.0887595656373654	-0.28692167011281894	0.0	1.0770297842446885	-0.4013440593476732	0.0	1.0746304347512072	-0.3361130364318458	0.0	1.0503220817992414	-0.27291256470902714	0.0
45	1.5098684210526316	1.20974895686297	-0.29649867268565533	0.0	1.2136574184202609	-0.2966820079576405	0.0	1.0861178629706278	-0.2337648924901855	0.0	1.1913663494921152	-0.15625016121578975	0.0	1.170647303957457	-0.1088615476841901	0.0	1.186665348328269	-0.11489150256276129	0.0	1.2044590693579993	-0.1534441415986593	0.0	1.1997927412788412	-0.2971232002479082	0.0	1.0831951999857148	-0.2285978017475497	0.0	1.1855616324039375	-0.15599546548645243	0.0	1.171883666866469	-0.10447417003744386	0.0	1.1754125274288165	-0.11196339953196568	0.0	1.2009439763231422	-0.1444206849369809	0.0	1.082557299184083	-0.4133159401264158	0.0	1.0173279704886853	-0.46164738549227213	0.0	1.049401448905724	-0.41592547526849155	0.0	1.117005022711904	-0.41331047620406286	0.0	1.1520607997106134	-0.3374809139784147	0.0	1.1004719772873244	-0.2857098008598847	0.0	1.0793435624726229	-0.3985168538137831	0.0	1.0797723210024135	-0.331603003580581	0.0	1.0574366625833103	-0.26798883893128084	0.0
46	1.543421052631579	1.2207274283279512	-0.30272041089623325	0.0	1.2239871437256729	-0.30323180207725936	0.0	1.103732701970361	-0.2292746043143546	0.0	1.2151259903115281	-0.16064506451063318	0.0	1.200688817478026	-0.11287726406917581	0.0	1.216809062972707	-0.1202693310640581	0.0	1.2284999832823453	-0.15923631639577057	0.0	1.210559690480182	-0.3026182721178007	0.0	1.100500247409537	-0.22451254297190046	0.0	1.2088731077966481	-0.15962083717506917	0.0	1.2014514971723866	-0.10769686854258402	0.0	1.2024038557665273	-0.11376802954573315	0.0	1.2252189787922516	-0.15050071631716563	0.0	1.083652670847523	-0.410030392693365	0.0	1.014971707801053	-0.4529754015733285	0.0	1.0495868630513412	-0.4082306550492814	0.0	1.1170490975514547	-0.41232552152799046	0.0	1.1606630046684492	-0.3397180071986084	0.0	1.112070235497395	-0.2846558375964075	0.0	1.0818584122444252	-0.3959813225509072	0.0	1.0852801982212592	-0.328031220289036	0.0	1.0655556221313833	-0.264123888999198	0.0
47	1.5769736842105264	1.2303138295164586	-0.3088066165664431	0.0	1.2333554240130713	-0.3095134019636629	0.0	1.1212496772094709	-0.22569729143485195	0.0	1.2385819146560217	-0.1663866281739944	0.0	1.2301145120331347	-0.11875887558983653	0.0	1.2457398525059118	-0.12651683496742305	0.0	1.2523341749031978	-0.16633208103937694	0.0	1.2202933423923559	-0.3083256223760806	0.0	1.1176271709382561	-0.2216862975241447	0.0	1.2319035311497704	-0.16476613292099238	0.0	1.2304153724989584	-0.11375966338909557	0.0	1.2292185741317694	-0.11855592105944772	0.0	1.2492452265944964	-0.15866338176333467	0.0	1.0854035607235981	-0.40679116318850145	0.0	1.0134611939728109	-0.443695081275875	0.0	1.05052025285195	-0.40008938072239725	0.0	1.117521794801737	-0.4106995472404547	0.0	1.168894273825976	-0.3421030595850127	0.0	1.1235454802242035	-0.2837997504418587	0.0	1.084664124964158	-0.39381502597055607	0.0	1.0910585174881986	-0.32558503217190543	0.0	1.0744076606116635	-0.2614547384403278	0.0
48	1.6105263157894738	1.2384813278049243	-0.31460679136978315	0.0	1.2417395906875033	-0.3155974917971201	0.0	1.1392263751281715	-0.2229176102655808	0.0	1.2620518007823907	-0.17364340507449544	0.0	1.2590602154333936	-0.12653560945317416	0.0	1.2737305344853347	-0.13368735031266435	0.0	1.276343909387756	-0.17498910952259653	0.0	1.2287633385305918	-0.3141379341793392	0.0	1.1351865185466234	-0.21986787217189602	0.0	1.255026457766282	-0.17149802411353213	0.0	1.2590196726690266	-0.1225321698687458	0.0	1.2563658318175788	-0.1260986384335202	0.0	1.2733227376983758	-0.16888005407955392	0.0	1.0878705341070407	-0.4036114726356799	0.0	1.012818388219888	-0.43368048339569976	0.0	1.0526593216581315	-0.3917077095271314	0.0	1.1187377989341156	-0.40843431307986816	0.0	1.1768226793780818	-0.3445966643398182	0.0	1.1351767711807963	-0.28322573518266186	0.0	1.0879261580745154	-0.39197813034999207	0.0	1.097088893484809	-0.32424969084787775	0.0	1.0838330277349213	-0.25989229979122824	0.0
49	1.644078947368421	1.245576275341384	-0.3202842687962126	0.0	1.249426673786002	-0.3216515754903039	0.0	1.1583035721652803	-0.22080816514464424	0.0	1.2857998120313947	-0.1826778445483181	0.0	1.287835761446769	-0.13598559928920065	0.0	1.3013836256654692	-0.1421426499071967	0.0	1.3007227283365401	-0.18554265295248976	0.0	1.2360978534823621	-0.3199916712670163	0.0	1.1538362879003674	-0.21869008321051236	0.0	1.2784564122467306	-0.1799486921022704	0.0	1.28764504615559	-0.13358125639860655	0.0	1.2842857267458745	-0.13605379128780684	0.0	1.2976039257937748	-0.18108635990676314	0.0	1.091039568628139	-0.4003551571380669	0.0	1.0131939387170112	-0.4228807645762788	0.0	1.0562506100053286	-0.38331698342789583	0.0	1.1207980426456394	-0.40562530385829815	0.0	1.1845717440031758	-0.34725842803689744	0.0	1.1473646070742078	-0.2830928611812638	0.0	1.0917948051840947	-0.3901760368809387	0.0	1.1034446957105135	-0.32394713999059055	0.0	1.093808731682175	-0.2592246730842143	0.0
